<svg width="41" height="38" viewBox="0 0 41 38" fill="none" xmlns="http://www.w3.org/2000/svg">
<path d="M39.1659 14.9997H37.8325V6.99967C37.8325 6.64605 37.6921 6.30691 37.442 6.05686C37.192 5.80682 36.8528 5.66634 36.4992 5.66634H4.49921C4.18349 5.67149 3.87619 5.56442 3.63202 5.36421C3.38785 5.16399 3.22267 4.88362 3.16587 4.57301V4.09301C3.22267 3.7824 3.38785 3.50202 3.63202 3.30181C3.87619 3.10159 4.18349 2.99452 4.49921 2.99967H35.9392C36.2928 2.99967 36.632 2.8592 36.882 2.60915C37.1321 2.3591 37.2725 2.01996 37.2725 1.66634C37.2725 1.31272 37.1321 0.973581 36.882 0.723532C36.632 0.473484 36.2928 0.333008 35.9392 0.333008H4.49921C3.43834 0.333008 2.42092 0.754435 1.67078 1.50458C0.920634 2.25473 0.499206 3.27214 0.499206 4.33301C0.489848 4.49287 0.489848 4.65314 0.499206 4.81301V32.2397C0.50444 32.9576 0.651028 33.6674 0.9306 34.3286C1.21017 34.9899 1.61725 35.5896 2.1286 36.0935C2.63994 36.5974 3.24554 36.9957 3.9108 37.2655C4.57607 37.5354 5.28797 37.6716 6.00587 37.6663H36.4992C36.8528 37.6663 37.192 37.5259 37.442 37.2758C37.6921 37.0258 37.8325 36.6866 37.8325 36.333V28.333H39.1659C39.5195 28.333 39.8586 28.1925 40.1087 27.9425C40.3587 27.6924 40.4992 27.3533 40.4992 26.9997V16.333C40.4992 15.9794 40.3587 15.6402 40.1087 15.3902C39.8586 15.1401 39.5195 14.9997 39.1659 14.9997ZM35.1659 34.9997H6.00587C5.26427 35.0068 4.54985 34.7209 4.01799 34.204C3.48614 33.6871 3.1799 32.9812 3.16587 32.2397V8.173C3.59867 8.29843 4.04902 8.35247 4.49921 8.333H35.1659V14.9997H25.8325C24.0644 14.9997 22.3687 15.702 21.1185 16.9523C19.8682 18.2025 19.1659 19.8982 19.1659 21.6663C19.1659 23.4344 19.8682 25.1301 21.1185 26.3804C22.3687 27.6306 24.0644 28.333 25.8325 28.333H35.1659V34.9997ZM37.8325 25.6663H25.8325C24.7717 25.6663 23.7543 25.2449 23.0041 24.4948C22.254 23.7446 21.8325 22.7272 21.8325 21.6663C21.8325 20.6055 22.254 19.5881 23.0041 18.8379C23.7543 18.0878 24.7717 17.6663 25.8325 17.6663H37.8325V25.6663Z" fill="#F81DFB"/>
</svg>
